<svg xmlns="http://www.w3.org/2000/svg" width="289" height="289" viewBox="0 0 288.7 288.7"><defs><clipPath><path d="M0 0H385V385H0Z"/></clipPath><style type="text/css">  

.g0{
fill: #464341;
}

</style></defs><path class="g0" d="M258.2 82.1C268.4 100.5 274.1 121.8 274.1 144.3c0 47.9-25.9 89.7-64.5 112.2l39.6-114.6c7.4-18.5 9.9-33.3 9.9-46.5 0-4.8-0.3-9.2-0.9-13.3m-96 1.4c7.8-0.4 14.9-1.3 14.9-1.3 7-0.8 6.1-11.1-0.9-10.7 0 0-21 1.7-34.6 1.7-12.7 0-34.1-1.7-34.1-1.7-7-0.4-7.9 10.3-0.9 10.7 0 0 6.7 0.9 13.7 1.3L140.5 138.9 112.1 224.1 64.8 83.5c7.8-0.4 14.9-1.3 14.9-1.3 6.9-0.8 6.1-11.1-0.9-10.7 0 0-21 1.7-34.6 1.7-2.4 0-5.3-0.1-8.3-0.2C59.1 37.8 99 14.5 144.3 14.5c33.8 0 64.6 12.9 87.7 34.1-0.6 0-1.1-0.1-1.7-0.1-12.7 0-21.8 11.1-21.8 23 0 10.7 6.2 19.8 12.8 30.5 4.9 8.6 10.7 19.7 10.7 35.8 0 11.1-4.3 24-9.9 41.9l-13 43.3zM144.3 274.1c-12.7 0-25-1.8-36.6-5.2L146.6 155.7 186.5 265c0.3 0.6 0.6 1.2 0.9 1.8-13.5 4.7-28 7.3-43.1 7.3M14.5 144.3c0-18.8 4.1-36.7 11.3-52.8L87.7 261.1C44.4 240.1 14.5 195.7 14.5 144.3M144.3 0C64.7 0 0 64.7 0 144.3c0 79.6 64.7 144.4 144.3 144.4 79.6 0 144.4-64.8 144.4-144.4C288.7 64.7 223.9 0 144.3 0Z" style="fill-opacity:1;fill:#41b883"/><path d="m215.2 18.6-20.2 6.1c13.7 5.8 26.2 13.9 37.1 23.9-0.6 0-1.1-0.1-1.7-0.1-12.7 0-21.8 11.1-21.8 23 0 10.7 6.2 19.8 12.8 30.5 4.9 8.6 10.7 19.7 10.7 35.8 0 11.1-4.3 24-9.9 41.9l-13 43.3L162.2 83.5c7.8-0.4 14.9-1.3 14.9-1.3 7-0.8 6.1-11.1-0.9-10.7 0 0-21 1.7-34.6 1.7-12.7 0-34.1-1.7-34.1-1.7-7-0.4-7.9 10.3-0.9 10.7 0 0 6.7 0.9 13.7 1.3L140.5 138.9 112.1 224.1 64.8 83.5c7.8-0.4 14.9-1.3 14.9-1.3 6.9-0.8 6.1-11.1-0.9-10.7 0 0-21 1.7-34.6 1.7-2.4 0-5.3-0.1-8.3-0.2L105.7 263.4 158.3 108 206.3 250.7C245.9 126.5 247.7 132 250.2 103.5 254.2 58 226.8 34.6 219.7 21.3c-1.5-0.9-3-1.8-4.6-2.7z" style="fill-opacity:1;fill:#35495e"/><path d="M143.9 0A144.4 144.4 0 0 0 0 144.3 144.4 144.4 0 0 0 144.3 288.7 144.4 144.4 0 0 0 288.7 144.3 144.4 144.4 0 0 0 144.3 0a144.4 144.4 0 0 0-0.4 0zm0.4 14.5A129.9 129.9 0 0 1 274.2 144.3 129.9 129.9 0 0 1 144.3 274.2 129.9 129.9 0 0 1 14.5 144.3 129.9 129.9 0 0 1 144.3 14.5Z" style="fill-opacity:1;fill:#464341;stroke-width:0.9;stroke:none"/></svg>